<svg width="256" height="256" viewBox="0 0 256 256" fill="none" xmlns="http://www.w3.org/2000/svg">
<path d="M176.931 154.245C151.514 168.046 124.625 176.385 95.9743 181.022C95.8851 181.022 95.7736 181.067 95.6621 181.067C95.2162 181.134 94.748 181.178 94.2798 181.178C96.9999 173.754 100.277 166.284 104.09 158.927C121.392 125.527 149.44 94.4911 182.149 79.8872C188.213 77.1894 212.783 68.1149 214.5 79.419C219.227 110.611 205.515 138.682 176.909 154.222L176.931 154.245Z" fill="black"/>
<path d="M100.946 146.218C94.9485 156.497 89.8204 167.332 85.7626 178.458C85.7626 178.458 43.1102 163.765 39.7658 111.704C39.5205 108.025 42.5751 104.948 46.2539 105.26C46.2985 105.26 46.3431 105.26 46.3877 105.26C58.8735 106.33 85.495 112.685 100.946 146.218Z" fill="black"/>
</svg>
